<svg width="190" height="190" viewBox="0 0 190 190" fill="none" xmlns="http://www.w3.org/2000/svg">
<g clip-path="url(#clip0_1_2)">
<path d="M94.7906 189.581C147.186 189.581 189.581 147.186 189.581 94.7906C189.581 42.5272 147.186 0 94.7906 0C42.5272 0 0 42.395 0 94.7906C0.132283 147.186 42.5272 189.581 94.7906 189.581Z" fill="#BE0737"/>
<path d="M98.657 53.1931H91.0602V136.252H117.589V128.92H98.6532L98.657 53.1931ZM64.6602 75.8589C66.1485 75.8599 67.6223 75.5675 68.9975 74.9984C70.3727 74.4293 71.6222 73.5947 72.6746 72.5423C73.727 71.49 74.5616 70.2404 75.1307 68.8652C75.6998 67.4901 75.9922 66.0162 75.9912 64.5279C75.9927 63.0393 75.7006 61.565 75.1318 60.1893C74.5629 58.8137 73.7284 57.5637 72.676 56.511C71.6235 55.4582 70.3738 54.6232 68.9984 54.0539C67.623 53.4846 66.1488 53.1921 64.6602 53.1931C63.1716 53.1921 61.6974 53.4846 60.3219 54.0539C58.9465 54.6232 57.6968 55.4582 56.6444 56.511C55.5919 57.5637 54.7574 58.8137 54.1886 60.1893C53.6197 61.565 53.3276 63.0393 53.3291 64.5279C53.3281 66.0162 53.6206 67.4901 54.1896 68.8652C54.7587 70.2404 55.5933 71.49 56.6457 72.5423C57.6981 73.5947 58.9476 74.4293 60.3228 74.9984C61.698 75.5675 63.1719 75.8599 64.6602 75.8589Z" fill="white"/>
<path d="M98.657 15.5981C97.7235 15.5981 95.8601 15.4658 94.7905 15.4658C51.0614 15.4658 15.4658 51.0614 15.4658 94.7905C15.4658 115.99 23.7316 135.851 38.6646 150.917C53.5937 165.849 73.5912 174.115 94.7905 174.115C115.99 174.115 135.851 165.849 150.917 150.917C165.849 135.987 174.115 115.99 174.115 94.7905V91.1924H117.589V98.5247H166.647V99.5905C164.115 136.921 132.918 166.651 94.9228 166.651C75.7228 166.651 57.7285 159.182 44.126 145.584C30.3987 132.121 22.9304 113.987 22.9304 94.7905C22.9304 75.5905 30.3987 57.5924 43.9975 43.9937C57.5924 30.3987 75.5905 22.9304 94.7905 22.9304C95.5918 22.9304 97.7235 22.9304 98.657 23.0627V15.5981Z" fill="white"/>
</g>
<defs>
<clipPath id="clip0_1_2">
<rect width="190" height="190" fill="white"/>
</clipPath>
</defs>
</svg>
